# xmcd CD database file
# Copyright (C) 1993-1998 Ti Kan
#
# Track frame offsets:
#	183
#	11335
#	22063
#	35045
#	47530
#	58940
#	69553
#	82138
#	93748
#	106878
#	118838
#	131930
#	145073
#	156190
#	169158
#	183153
#	195578
#	207135
#
# Disc length: 2913 seconds
#
# Revision: 1
# Processed by: cddbd v1.4b41PL1 Copyright (c) Steve Scherf et al.
# Submitted via: NotifyCDPlayer(CDDB) 1.51.3
#
DISCID=050b5f12
DTITLE=Jimmy Reed - The Best Of Jimmy Reed
DYEAR=1900
DGENRE=
TTITLE0=Baby, What You Want Me To Do
TTITLE1=Found Love
TTITLE2=Big Boss Man
TTITLE3=Bright Lights, Big City
TTITLE4=Aw Shucks, Hush Your Mouth
TTITLE5=Ain't That Lovin' You Baby
TTITLE6=Honest I Do
TTITLE7=Boogie In The Dark
TTITLE8=You Got Me Dizzy
TTITLE9=Hush Hush
TTITLE10=Shame Shame Shame
TTITLE11=Oh John
TTITLE12=Take Out Some Insurance
TTITLE13=Caress Me Baby
TTITLE14=You Don't Have To Go
TTITLE15=Pretty Thing
TTITLE16=I'm Nervous
TTITLE17=Good Lover
EXTD=
EXTT0=
EXTT1=
EXTT2=
EXTT3=
EXTT4=
EXTT5=
EXTT6=
EXTT7=
EXTT8=
EXTT9=
EXTT10=
EXTT11=
EXTT12=
EXTT13=
EXTT14=
EXTT15=
EXTT16=
EXTT17=
PLAYORDER=
